<svg id="Layer_1" data-name="Layer 1" xmlns="http://www.w3.org/2000/svg" viewBox="0 0 237.43 292.16"><defs><style>.cls-1,.cls-2{fill:#0f2350;}.cls-1{opacity:0.35;}</style></defs><title>s-logo</title><polygon class="cls-1" points="62.27 24.65 0.2 54.13 0.2 85.17 51.41 99.14 77.79 92.15 129.77 68.88 62.27 24.65"/><polygon class="cls-1" points="172.28 194.68 234.12 216.47 236.97 238.13 170.29 273.12 118.16 235.57 117.88 223.94 172.28 194.68"/><path class="cls-2" d="M267.85,132.68,69.22,41.13,141,6.6s8.15-5,23.66,1.94S255,52,255,52s12.8,3.88,12.8,26.38Z" transform="translate(-31 -4.84)"/><path class="cls-2" d="M31.2,59,255,163.72s16.68,3.88,12.8,32.59v46.55L45.17,141.22S32.75,138.11,32,122.6,31.2,59,31.2,59Z" transform="translate(-31 -4.84)"/><path class="cls-2" d="M230.6,262.26,31.2,169.15v64.4s-3.88,14,22.5,22.5c24.83,11.64,76.81,35.69,76.81,35.69a40.14,40.14,0,0,0,34.91,2.33C184.83,286.31,230.6,262.26,230.6,262.26Z" transform="translate(-31 -4.84)"/></svg>