<?xml version="1.0" standalone="no"?>
<!DOCTYPE svg PUBLIC "-//W3C//DTD SVG 20010904//EN"
 "http://www.w3.org/TR/2001/REC-SVG-20010904/DTD/svg10.dtd">
<svg version="1.0" xmlns="http://www.w3.org/2000/svg"
 width="500.000000pt" height="500.000000pt" viewBox="0 0 500.000000 500.000000"
 preserveAspectRatio="xMidYMid meet">
<metadata>
Created by potrace 1.11, written by Peter Selinger 2001-2013
</metadata>
<g transform="translate(0.000000,500.000000) scale(0.100000,-0.100000)"
fill="#000000" stroke="none">
<path d="M2330 4896 c-87 -39 -374 -177 -1200 -575 -168 -81 -372 -179 -454
-217 l-148 -69 5 -545 c4 -452 8 -555 21 -602 30 -110 92 -180 205 -229 258
-115 2401 -1095 2401 -1099 0 -8 -566 -310 -581 -310 -9 0 -472 213 -1030 474
-558 261 -1015 473 -1016 472 -2 -1 -3 -264 -3 -585 l-1 -582 23 -45 c44 -89
137 -157 312 -229 82 -34 964 -441 1316 -607 143 -68 185 -79 310 -85 143 -6
203 7 371 80 196 86 624 294 860 418 118 63 340 179 492 259 l277 145 2 440
c3 510 2 563 -13 630 -27 116 -99 209 -197 252 -263 115 -2411 1128 -2405
1134 4 4 149 71 322 148 l314 140 976 -450 c537 -248 982 -453 989 -456 11 -5
13 86 9 513 -4 563 -5 576 -62 688 -51 101 -58 105 -670 402 -1135 550 -1098
534 -1258 534 -64 0 -83 -5 -167 -44z"/>
</g>
</svg>
